<svg width="133" height="49" viewBox="0 0 133 49" fill="none" xmlns="http://www.w3.org/2000/svg">
<path d="M28.4177 0H5.98535V8.97654H28.4177V0Z" fill="#EF7C13"/>
<path d="M28.8837 11.332H5.52169C3.36499 13.504 2.1567 14.7208 0 16.8928V43.4906C0 46.534 2.44872 49.0001 5.47078 49.0001H28.9346C31.9566 49.0001 34.4054 46.534 34.4054 43.4906V16.8928C32.2487 14.7208 31.0404 13.504 28.8837 11.332ZM25.2937 33.2756L14.2128 41.7854C13.4921 42.3385 12.5089 41.5776 12.8545 40.7331L16.257 32.4581C16.4445 32.0021 16.2302 31.4787 15.7774 31.2898L9.30729 28.5917C8.67502 28.3273 8.56518 27.4747 9.10904 27.0565L20.1899 18.5467C20.9106 17.9936 21.8938 18.7572 21.5482 19.599L18.1457 27.874C17.9582 28.33 18.1725 28.8534 18.6253 29.0423L25.0954 31.7431C25.7277 32.0048 25.8375 32.8574 25.2937 33.2756Z" fill="#EF7C13"/>
<path d="M48.9077 6.46191H53.8721C54.5687 6.46191 55.1688 6.48889 55.6672 6.54555C56.1655 6.59952 56.5968 6.67776 56.9585 6.77219C57.3202 6.86933 57.6256 6.98534 57.8721 7.12295C58.1186 7.26055 58.3436 7.41164 58.5499 7.57622C59.1527 8.07267 59.6001 8.67435 59.8948 9.38394C60.1895 10.0935 60.3369 10.8409 60.3369 11.6261C60.3369 12.0119 60.2994 12.4004 60.2243 12.7943C60.1493 13.1882 60.0395 13.5579 59.8975 13.9113C59.7528 14.2621 59.5867 14.5859 59.3938 14.8827C59.2009 15.1794 58.9839 15.4304 58.7374 15.6354C58.4776 15.8567 58.2096 16.0482 57.9364 16.2128C57.6631 16.3774 57.355 16.515 57.0121 16.6256C56.6691 16.7362 56.2807 16.8199 55.844 16.8738C55.4073 16.9305 54.8929 16.9575 54.3062 16.9575H52.6237V21.752H48.9104V6.46191H48.9077ZM52.621 13.5255H54.2017C54.3785 13.5255 54.6089 13.5147 54.8902 13.4958C55.1715 13.4742 55.4367 13.4095 55.6913 13.2989C55.9431 13.1883 56.1628 13.0075 56.3477 12.7512C56.5325 12.4975 56.6236 12.1414 56.6236 11.6881C56.6236 11.2321 56.5272 10.8868 56.3369 10.644C56.144 10.4038 55.9163 10.2284 55.6484 10.1178C55.3805 10.0072 55.1019 9.94245 54.8072 9.92086C54.5125 9.89928 54.2633 9.89119 54.0597 9.89119H52.6237V13.5255H52.621Z" fill="#EF7C13"/>
<path d="M61.9548 6.46191H66.7558C67.4256 6.46191 68.0016 6.4835 68.4785 6.52397C68.9581 6.56444 69.3733 6.63189 69.7297 6.72093C70.086 6.80997 70.3968 6.92329 70.662 7.06089C70.9272 7.19849 71.1844 7.36308 71.4309 7.55734C72.0605 8.05379 72.5293 8.67704 72.8374 9.42711C73.1455 10.1772 73.2983 10.9461 73.2983 11.7313C73.2983 12.1711 73.2366 12.6486 73.1134 13.1559C72.9902 13.6658 72.7812 14.1515 72.4892 14.6128C72.1945 15.0742 71.806 15.4816 71.3184 15.8324C70.8335 16.1831 70.2333 16.4206 69.5234 16.5447L73.6465 21.752H69.2153L65.7056 16.8145H65.6654V21.752H61.9521V6.46191H61.9548ZM65.6681 14.1461H67.0425C67.6185 14.1461 68.0713 14.0678 68.4062 13.9086C68.7411 13.7495 68.9929 13.5579 69.1644 13.3312C69.3358 13.1046 69.4484 12.8672 69.5019 12.619C69.5555 12.3707 69.585 12.1522 69.585 11.9579C69.585 11.2564 69.3546 10.7357 68.8964 10.3984C68.4383 10.0612 67.8328 9.89119 67.08 9.89119H65.6654V14.1461H65.6681Z" fill="#EF7C13"/>
<path d="M75.2915 11.0272C75.4978 10.5308 75.7979 10.0019 76.1944 9.43534C76.5909 8.87144 77.0946 8.34262 77.7028 7.85426C78.3109 7.36591 79.0289 6.96389 79.8568 6.64552C80.6846 6.32984 81.6304 6.17065 82.6993 6.17065C83.8621 6.17065 84.9364 6.3838 85.9196 6.8101C86.9056 7.2364 87.7522 7.81109 88.4648 8.53418C89.1748 9.25727 89.7294 10.1018 90.1259 11.065C90.5224 12.0282 90.7206 13.0427 90.7206 14.103C90.7206 15.1634 90.5224 16.1752 90.1259 17.1411C89.7294 18.1043 89.1748 18.9488 88.4648 19.6719C87.7522 20.395 86.9056 20.9697 85.9196 21.396C84.9364 21.8223 83.854 22.0354 82.6779 22.0354C81.4884 22.0354 80.4006 21.8142 79.4174 21.3744C78.4342 20.9346 77.5902 20.3518 76.8937 19.6287C76.1971 18.9056 75.6559 18.08 75.2728 17.1492C74.8897 16.2183 74.6968 15.2659 74.6968 14.2865C74.6968 13.7766 74.737 13.2477 74.82 12.6946C74.9004 12.1496 75.0585 11.5911 75.2915 11.0272ZM78.5735 14.0653C78.5735 14.6588 78.6699 15.2254 78.8601 15.7705C79.0504 16.3155 79.329 16.7957 79.6907 17.2166C80.0524 17.6375 80.4917 17.9748 81.0034 18.2284C81.5152 18.482 82.1019 18.6115 82.7583 18.6115C83.4415 18.6115 84.0416 18.4712 84.5533 18.1879C85.065 17.9073 85.491 17.5458 85.8259 17.1033C86.1608 16.6635 86.4153 16.1806 86.5841 15.6571C86.7555 15.1337 86.8413 14.6238 86.8413 14.1273C86.8413 13.6309 86.7555 13.1182 86.5841 12.5894C86.4126 12.0606 86.1608 11.5695 85.8259 11.1216C85.491 10.6738 85.0623 10.3095 84.5426 10.0262C84.0228 9.74292 83.4147 9.60262 82.7181 9.60262C82.0483 9.60262 81.4535 9.73483 80.9338 9.99654C80.414 10.2583 79.98 10.6036 79.6317 11.0299C79.2834 11.4562 79.0182 11.9365 78.8414 12.4653C78.6619 12.9941 78.5735 13.5256 78.5735 14.0653Z" fill="#EF7C13"/>
<path d="M94.3292 9.89118H91.334V6.46191H101.182V9.89118H98.2059V21.7493H94.3292V9.89118Z" fill="#EF7C13"/>
<path d="M102.742 6.46191H111.173V9.89118H106.452V12.2655H111.028V15.6948H106.452V18.32H111.173V21.7493H102.742V6.46191Z" fill="#EF7C13"/>
<path d="M117.45 6.46191H113.574V21.752H117.45V6.46191Z" fill="#EF7C13"/>
<path d="M120.199 6.46191H123.543L129.41 16.0671L129.453 16.0266L129.287 6.46191H133V21.7493H129.638L123.851 12.4517L123.811 12.4733L123.912 21.7493H120.199V6.46191Z" fill="#EF7C13"/>
<path d="M48.9077 26.2983H52.2539L58.1212 35.9062L58.1614 35.8658L57.998 26.2983H61.7113V41.5884H58.3463L52.5594 32.2908L52.5192 32.3124L52.621 41.5884H48.9077V26.2983Z" fill="#EF7C13"/>
<path d="M64.4168 30.8661C64.6204 30.3696 64.9232 29.8408 65.3197 29.2742C65.7162 28.7103 66.2199 28.1815 66.828 27.6931C67.4362 27.2048 68.1542 26.8028 68.982 26.4844C69.8099 26.1687 70.7556 26.0095 71.8246 26.0095C72.9873 26.0095 74.0617 26.2227 75.0449 26.649C76.0308 27.0753 76.8774 27.65 77.5901 28.3757C78.3 29.0988 78.8546 29.9433 79.2511 30.9066C79.6476 31.8725 79.8459 32.8842 79.8459 33.9446C79.8459 35.0049 79.6476 36.0167 79.2511 36.9826C78.8546 37.9459 78.3 38.7904 77.5901 39.5135C76.8774 40.2365 76.0308 40.8112 75.0449 41.2402C74.0617 41.6665 72.9793 41.8797 71.8032 41.8797C70.6136 41.8797 69.5259 41.6584 68.5427 41.2186C67.5594 40.7789 66.7155 40.1961 66.0189 39.473C65.3223 38.7499 64.7812 37.9243 64.398 36.9934C64.0149 36.0626 63.8247 35.1102 63.8247 34.1308C63.8247 33.6208 63.8649 33.0893 63.9479 32.5389C64.0283 31.9885 64.1837 31.43 64.4168 30.8661ZM67.7014 33.9014C67.7014 34.495 67.7979 35.0616 67.9881 35.6066C68.1783 36.1516 68.4569 36.6319 68.8186 37.0528C69.1803 37.4737 69.6197 37.811 70.1314 38.0646C70.6431 38.3182 71.2298 38.4477 71.8862 38.4477C72.5694 38.4477 73.1695 38.3074 73.6812 38.0241C74.1929 37.7408 74.6189 37.382 74.9538 36.9395C75.2887 36.4997 75.5432 36.0167 75.712 35.4933C75.8835 34.9699 75.9692 34.4599 75.9692 33.9635C75.9692 33.467 75.8835 32.9544 75.712 32.4256C75.5405 31.8967 75.2887 31.4057 74.9538 30.9578C74.6189 30.5099 74.1903 30.1457 73.6705 29.8624C73.1508 29.5791 72.5426 29.4388 71.8433 29.4388C71.1736 29.4388 70.5788 29.571 70.059 29.83C69.5393 30.0917 69.1053 30.4371 68.757 30.8634C68.4087 31.2897 68.1435 31.7699 67.9666 32.2988C67.7898 32.8303 67.7014 33.3645 67.7014 33.9014Z" fill="#EF7C13"/>
<path d="M84.422 26.2983L86.4527 36.2381H86.4929L88.73 26.2983H91.7038L93.898 36.2786H93.9409L96.0119 26.2983H99.9314L95.9101 41.5884H92.5049L90.2276 31.6918H90.1848L87.9075 41.5884H84.4005L80.481 26.2983H84.422Z" fill="#EF7C13"/>
</svg>
