<svg width="16" height="25" viewBox="0 0 16 25" fill="none" xmlns="http://www.w3.org/2000/svg">
<rect x="1" y="11" width="14" height="13" rx="3" stroke="white" stroke-width="2"/>
<path d="M6.19612 1.98058C6.73768 1.87227 7.08889 1.34544 6.98058 0.803884C6.87227 0.262324 6.34544 -0.0888926 5.80388 0.0194193L6.19612 1.98058ZM4.21553 1.35689L4.01942 0.376312L4.21553 1.35689ZM2 15V5.27922H0V15H2ZM4.41165 2.33747L6.19612 1.98058L5.80388 0.0194193L4.01942 0.376312L4.41165 2.33747ZM2 5.27922C2 3.84917 3.00938 2.61793 4.41165 2.33747L4.01942 0.376312C1.6823 0.843737 0 2.89581 0 5.27922H2Z" fill="white"/>
<circle cx="8.5" cy="17.5" r="1.5" fill="white"/>
</svg>
